Jump_normalized_Motion_pl17
version=1
nRows=14
nColumns=43
inDegrees=yes
endheader
time		pelvis_tilt		pelvis_list		pelvis_rotation		pelvis_tx		pelvis_ty		pelvis_tz		hip_flexion_r		hip_adduction_r		hip_rotation_r		knee_angle_r		ankle_angle_r		subtalar_angle_r		mtp_angle_r		hip_flexion_l		hip_adduction_l		hip_rotation_l		knee_angle_l		ankle_angle_l		subtalar_angle_l		mtp_angle_l		lumbar_extension		lumbar_bending		lumbar_rotation		neck_flexion		neck_lateral_bending		neck_rotation		arm_flex_r		arm_add_r		arm_rot_r		elbow_flex_r		pro_sup_r		wrist_flex_r		wrist_dev_r		hand_finger_flex_r		arm_flex_l		arm_add_l		arm_rot_l		elbow_flex_l		pro_sup_l		wrist_flex_l		wrist_dev_l		hand_finger_flex_l		
0.446667		3.870179		-18.851487		89.618923		0.056353		1.754386		1.853338		85.349893		5.182728		-2.043414		-135.975754		27.417628		2.905056		20.193491		87.798654		-10.468765		3.274464		-140.068913		19.596625		3.370723		24.802539		-47.292978		1.126452		4.057105		38.051499		-2.726665		2.375514		78.205369		-15.409025		7.617125		76.641252		98.111990		-7.001765		3.991830		29.855740		80.616252		-26.222298		13.902769		83.411844		84.752377		-6.507036		3.091415		27.082868		
0.450429		3.887287		-19.186271		89.702098		0.056295		1.757071		1.850213		85.013964		5.210379		-1.979614		-135.547507		27.468511		2.923836		20.339192		87.462239		-10.456767		3.240930		-139.632114		19.580508		3.479383		24.850594		-46.884613		1.179262		3.971194		38.073426		-2.689169		2.404013		79.343890		-15.317664		7.802571		76.754214		98.154577		-7.040573		4.018004		29.765229		81.961206		-26.009483		14.267174		83.480964		84.720174		-6.513570		3.168455		27.092532		
0.454192		3.903896		-19.365374		89.772501		0.056246		1.760125		1.846883		84.473243		5.230567		-1.932771		-135.101081		27.522118		2.924875		20.577115		86.905419		-10.457661		3.205137		-139.175444		19.597424		3.651781		24.922024		-46.676386		1.205684		3.878164		38.089818		-2.586111		2.462123		80.544252		-15.378671		8.177818		76.963524		98.196593		-7.074421		4.147299		29.629021		83.448730		-25.988332		14.842133		83.590446		84.761665		-6.401141		3.312864		27.123731		
0.457955		3.930951		-19.668049		89.788657		0.056145		1.762966		1.843632		84.090431		5.303520		-1.871066		-134.631357		27.547768		2.908458		20.751232		86.479754		-10.498508		3.154665		-138.707023		19.629562		3.774221		24.973847		-46.299049		1.235654		3.846319		38.107627		-2.572010		2.510319		81.714966		-15.290456		8.404725		77.020397		98.204952		-7.093499		4.265321		29.521064		84.776235		-25.799649		15.185063		83.637191		84.787751		-6.352225		3.382302		27.129458		
0.461717		3.935810		-19.943687		89.762453		0.056118		1.765826		1.840331		83.682889		5.402377		-1.793524		-134.167750		27.558579		2.881668		20.926085		86.002186		-10.582378		3.082388		-138.235512		19.689983		3.910749		25.023443		-45.954120		1.226692		3.834595		38.097757		-2.600817		2.569456		82.947985		-15.320863		8.775353		77.080220		98.233981		-7.020330		4.418987		29.441889		86.237422		-25.763416		15.765110		83.638049		84.874774		-6.225728		3.464863		27.169311		
0.465480		3.854524		-20.013520		89.657074		0.056192		1.769244		1.836662		83.003623		5.518086		-1.642307		-133.663080		27.518754		2.831527		21.290582		85.179454		-10.715467		2.914966		-137.721456		19.826840		4.151580		25.125517		-45.858619		1.090135		3.801612		38.080161		-2.516107		2.575017		84.144116		-15.425084		9.151379		77.281840		98.155080		-7.015171		4.621055		29.276677		87.855561		-25.874725		16.616923		83.620602		84.836688		-6.168313		3.449592		27.259330		
0.469242		3.847626		-20.391136		89.614439		0.056096		1.771982		1.833297		82.708211		5.594882		-1.554309		-133.180996		27.509883		2.813976		21.448347		84.804787		-10.779845		2.824703		-137.233636		19.883832		4.254048		25.168817		-45.377410		1.091841		3.827575		38.065574		-2.621622		2.610337		85.332081		-15.358689		9.410389		77.227049		98.211211		-7.023145		4.696208		29.179516		89.259139		-25.713615		17.126301		83.494632		84.875826		-6.151008		3.499040		27.298882		
0.473005		3.680560		-20.366711		89.474553		0.056274		1.775694		1.829395		81.909415		5.687603		-1.325286		-132.675542		27.438526		2.765117		22.110744		83.815708		-10.915576		2.563413		-136.671744		20.056178		4.549752		25.346263		-45.396555		0.840894		3.744436		38.111901		-2.439636		2.551358		86.523087		-15.460399		9.763266		77.386895		98.287117		-7.360544		4.782762		28.833823		91.042828		-25.840263		18.245979		83.353154		84.550332		-6.459288		3.348080		27.479899		
0.476768		3.713945		-20.820607		89.476915		0.056094		1.778283		1.825843		81.674043		5.730898		-1.277948		-132.186542		27.424423		2.778961		22.273385		83.543370		-10.960719		2.507128		-136.180554		20.058771		4.605970		25.390523		-44.806229		0.907102		3.762317		37.995447		-2.612910		2.610265		87.678750		-15.451739		10.116460		77.351675		98.494766		-7.351236		4.833491		28.765971		92.391875		-25.726152		18.790912		83.234573		84.626255		-6.443315		3.463574		27.541737		
0.480530		3.742802		-21.172448		89.479327		0.055951		1.781159		1.822091		81.288786		5.763719		-1.234320		-131.670575		27.414822		2.801413		22.462225		83.142669		-10.999491		2.452877		-135.673906		20.040226		4.706458		25.438649		-44.340151		0.946607		3.774936		37.918062		-2.667955		2.643825		88.849885		-15.468400		10.486143		77.330178		98.835270		-7.412359		4.909944		28.676926		93.828361		-25.671813		19.470829		83.099007		84.701665		-6.438899		3.561014		27.596901		
0.484293		3.761444		-21.461453		89.483707		0.055823		1.784200		1.818167		80.816409		5.796562		-1.184294		-131.137666		27.411660		2.828824		22.679465		82.652525		-11.046937		2.389649		-135.154606		19.993343		4.836722		25.491096		-43.944661		0.969120		3.758090		37.842279		-2.675912		2.680817		90.029864		-15.504592		10.847042		77.329276		99.261382		-7.466400		5.030301		28.606608		95.275808		-25.646103		20.199020		82.953479		84.746742		-6.479234		3.607286		27.638813		
0.488056		3.770633		-21.726351		89.470607		0.055697		1.787304		1.814093		80.299491		5.836842		-1.115339		-130.597899		27.402971		2.864338		22.913689		82.125475		-11.107745		2.309399		-134.623973		19.927549		4.978383		25.546354		-43.567383		0.977876		3.731895		37.760481		-2.673471		2.722956		91.197843		-15.534546		11.191030		77.324501		99.673472		-7.428175		5.188459		28.590070		96.699933		-25.638005		20.932893		82.807001		84.762043		-6.558921		3.588149		27.674411		
0.491818		3.763780		-21.966995		89.427114		0.055606		1.790445		1.809877		79.745601		5.896971		-1.019265		-130.047494		27.384097		2.909830		23.171331		81.547439		-11.196990		2.204881		-134.083921		19.860284		5.129434		25.607595		-43.205576		0.962150		3.698856		37.673498		-2.664083		2.769568		92.358093		-15.551829		11.511004		77.306185		100.003719		-7.274264		5.353003		28.631146		98.110981		-25.659478		21.693219		82.646626		84.749444		-6.676199		3.501723		27.717666		
0.495581		3.604249		-21.929162		89.251702		0.055708		1.794277		1.805200		78.832404		5.985419		-0.756539		-129.458456		27.323220		2.968287		23.960503		80.505235		-11.348982		1.905028		-133.474453		19.868123		5.373496		25.813380		-43.179578		0.740995		3.581226		37.708051		-2.479279		2.811678		93.457102		-15.437517		11.579757		77.351080		100.251987		-6.982861		5.492487		28.771137		99.711366		-25.880303		22.854646		82.448856		84.249781		-7.364477		2.982975		27.917876		
